Coordinates
version=1
nRows=12
nColumns=23
inDegrees=yes

Units are S.I. units (second, meters, Newtons, ...)
If the header above contains a line with 'inDegrees', this indicates whether rotational values are in degrees (yes) or radians (no).

endheader
time	pelvis_tilt	pelvis_list	pelvis_rotation	pelvis_tx	pelvis_ty	pelvis_tz	hip_flexion_r	hip_adduction_r	hip_rotation_r	knee_angle_r	knee_angle_r_beta	ankle_angle_r	subtalar_angle_r	mtp_angle_r	hip_flexion_l	hip_adduction_l	hip_rotation_l	knee_angle_l	knee_angle_l_beta	ankle_angle_l	subtalar_angle_l	mtp_angle_l
      7.50000000	     -6.92442967	      1.55644548	      2.12900638	      2.22477783	      0.96363856	      0.99369650	     39.82753948	     -4.33144093	     -2.46026631	     57.92071140	      1.01090712	      3.42139892	    -10.94725326	      0.00000000	     -9.21113950	      3.93892719	      0.33842773	     20.70399910	      0.36135295	     -2.25690374	     -7.41364621	      0.00000000
      7.50666667	     -7.67534361	      1.50663157	      1.43873905	      2.22606281	      0.96554164	      0.99510797	     40.52480110	     -3.90082691	     -2.74987609	     53.90635126	      0.94084332	      3.88965496	    -10.35263820	      0.00000000	     -9.77701607	      3.80824830	     -0.77583492	     20.04160430	      0.34979198	     -5.55202298	     -7.29880446	      0.00000000
      7.51333333	     -7.64134590	      1.03504539	      1.06129108	      2.22797923	      0.96879028	      0.99612198	     39.89911567	     -3.29377156	     -3.75915411	     49.37628151	      0.86177868	      4.20001270	    -10.07184123	      0.00000000	    -11.28218521	      3.25508623	     -1.28114250	     19.14000593	      0.33405612	     -8.87983541	     -7.86846463	      0.00000000
      7.52000000	     -7.93403247	      0.74774304	      0.61967580	      2.22962537	      0.97106734	      0.99730078	     39.63986345	     -2.80646289	     -4.75069825	     44.98122736	      0.78507052	      4.77513048	     -9.13034067	      0.00000000	    -12.05692656	      2.87417684	     -2.09551088	     18.93216302	      0.33042858	    -11.91906286	     -8.25180589	      0.00000000
      7.52666667	     -8.14409266	      0.42427050	      0.23031788	      2.23126801	      0.97310796	      0.99851065	     39.16412584	     -2.27696918	     -5.92184682	     40.57861640	      0.70823046	      5.48196764	     -7.84625191	      0.00000000	    -12.67920964	      2.43319034	     -2.93207090	     19.17020690	      0.33458323	    -14.66265176	     -8.75506648	      0.00000000
      7.53333333	     -8.26544270	      0.06644348	     -0.12517992	      2.23287998	      0.97483392	      0.99979605	     38.50099900	     -1.66448148	     -7.18856853	     36.25067909	      0.63269371	      6.30782575	     -6.21012851	      0.00000000	    -13.15875363	      1.93266987	     -3.78163224	     19.86751016	      0.34675347	    -17.02102651	     -9.37791279	      0.00000000
      7.54000000	     -8.33542214	     -0.32470229	     -0.44797389	      2.23438260	      0.97611077	      1.00116152	     37.73403964	     -0.94273730	     -8.44258904	     32.09233561	      0.56011692	      7.20175026	     -4.35249388	      0.00000000	    -13.43144335	      1.35719632	     -4.65784456	     21.08324313	      0.36797201	    -18.92673425	    -10.14914189	      0.00000000
      7.54666667	     -8.75900570	     -0.44119342	     -0.93266040	      2.23538666	      0.97617012	      1.00291713	     37.50985544	     -0.22789728	     -9.09142432	     28.41068079	      0.49585992	      8.11149552	     -2.66297517	      0.00000000	    -13.01310267	      1.06633201	     -5.59717248	     22.91403437	      0.39992534	    -20.34794296	    -11.19969862	      0.00000000
      7.55333333	     -8.39648430	     -1.17073124	     -1.09923011	      2.23681316	      0.97708263	      1.00422792	     36.11758282	      0.89600345	    -10.32172692	     24.60882116	      0.42950495	      8.85875887	     -0.74142100	      0.00000000	    -13.34202837	      0.04677867	     -6.35459391	     24.99347466	      0.43621842	    -21.18948894	    -11.95186428	      0.00000000
      7.56000000	     -8.73387186	     -1.23200818	     -1.68605436	      2.23734801	      0.97608446	      1.00612497	     35.93725720	      1.71993746	    -10.39970938	     21.82382228	      0.38089755	      9.72085198	      0.77592834	      0.00000000	    -12.64966564	     -0.15231511	     -7.05269662	     27.56767136	      0.48114663	    -21.70007503	    -13.34774093	      0.00000000
      7.56666667	     -8.35705502	     -2.06249977	     -1.80274339	      2.23823545	      0.97583934	      1.00730572	     34.63730793	      3.00174804	    -11.14558137	     18.88918152	      0.32967841	      9.94354344	      1.90073647	      0.00000000	    -12.51037362	     -1.34993276	     -7.65084635	     30.62708745	      0.53454352	    -21.57071758	    -14.04231148	      0.00000000
      7.57333333	     -8.37374765	     -2.42278215	     -2.27568667	      2.23846203	      0.97432415	      1.00884345	     34.18140933	      3.96239140	    -11.29250242	     17.06343137	      0.29781306	     10.24870036	      2.80698633	      0.00000000	    -11.80312525	     -1.87925354	     -8.03015643	     33.89411783	      0.59156395	    -21.39778813	    -15.32857976	      0.00000000
